PathFileType	4	(X/Y/Z)	two_link_01.trc																									
DataRate	CameraRate	NumFrames	NumMarkers	Units	OrigDataRate	OrigDataStartFrame	OrigNumFrames																					
60	60	61	9	m	60	1	61																					
Frame#	Time	Link2_Marker_1			Link2_Marker_2			Link2_Marker_3			Link1_Marker_1			Link1_Marker_2			Link1_Marker_3			Base_Marker_1			Base_Marker_2			Base_Marker_3		
		X1	Y1	Z1	X2	Y2	Z2	X3	Y3	Z3	X4	Y4	Z4	X5	Y5	Z5	X6	Y6	Z6	X7	Y7	Z7	X8	Y8	Z8	X9	Y9	Z9
																												
1	0	-0.1479899	0.4479899	0	-0.1479899	0.4479899	0.1	-0.21870058	0.37727922	0	0.05	0.25	0	0.05	0.25	0.1	-0.05	0.25	0	0.1	0	0	0	0.1	0	0	0	0.1
2	0.016666667	-0.123101572	0.440200958	0	-0.123101572	0.440200958	0.1	-0.189883881	0.378475051	0	0.05	0.25	0	0.05	0.25	0.1	-0.05	0.25	0	0.1	0	0	0	0.1	0	0	0	0.1
3	0.033333333	-0.098213244	0.432412016	0	-0.098213244	0.432412016	0.1	-0.161067182	0.379670881	0	0.05	0.25	0	0.05	0.25	0.1	-0.05	0.25	0	0.1	0	0	0	0.1	0	0	0	0.1
4	0.05	-0.073324917	0.424623074	0	-0.073324917	0.424623074	0.1	-0.132250483	0.380866712	0	0.05	0.25	0	0.05	0.25	0.1	-0.05	0.25	0	0.1	0	0	0	0.1	0	0	0	0.1
5	0.066666667	-0.048436589	0.416834132	0	-0.048436589	0.416834132	0.1	-0.103433784	0.382062542	0	0.05	0.25	0	0.05	0.25	0.1	-0.05	0.25	0	0.1	0	0	0	0.1	0	0	0	0.1
6	0.083333333	-0.023548261	0.409045189	0	-0.023548261	0.409045189	0.1	-0.074617086	0.383258373	0	0.05	0.25	0	0.05	0.25	0.1	-0.05	0.25	0	0.1	0	0	0	0.1	0	0	0	0.1
7	0.1	0.001340067	0.401256247	0	0.001340067	0.401256247	0.1	-0.045800387	0.384454203	0	0.05	0.25	0	0.05	0.25	0.1	-0.05	0.25	0	0.1	0	0	0	0.1	0	0	0	0.1
8	0.116666667	0.026228394	0.393467305	0	0.026228394	0.393467305	0.1	-0.016983688	0.385650034	0	0.05	0.25	0	0.05	0.25	0.1	-0.05	0.25	0	0.1	0	0	0	0.1	0	0	0	0.1
9	0.133333333	0.051116722	0.385678363	0	0.051116722	0.385678363	0.1	0.011833011	0.386845864	0	0.05	0.25	0	0.05	0.25	0.1	-0.05	0.25	0	0.1	0	0	0	0.1	0	0	0	0.1
10	0.15	0.07600505	0.377889421	0	0.07600505	0.377889421	0.1	0.04064971	0.388041695	0	0.05	0.25	0	0.05	0.25	0.1	-0.05	0.25	0	0.1	0	0	0	0.1	0	0	0	0.1
11	0.166666667	0.100893378	0.370100479	0	0.100893378	0.370100479	0.1	0.069466409	0.389237525	0	0.05	0.25	0	0.05	0.25	0.1	-0.05	0.25	0	0.1	0	0	0	0.1	0	0	0	0.1
12	0.183333333	0.125781706	0.362311537	0	0.125781706	0.362311537	0.1	0.098283108	0.390433356	0	0.05	0.25	0	0.05	0.25	0.1	-0.05	0.25	0	0.1	0	0	0	0.1	0	0	0	0.1
13	0.2	0.150670033	0.354522595	0	0.150670033	0.354522595	0.1	0.127099807	0.391629186	0	0.05	0.25	0	0.05	0.25	0.1	-0.05	0.25	0	0.1	0	0	0	0.1	0	0	0	0.1
14	0.216666667	0.175558361	0.346733653	0	0.175558361	0.346733653	0.1	0.155916506	0.392825017	0	0.05	0.25	0	0.05	0.25	0.1	-0.05	0.25	0	0.1	0	0	0	0.1	0	0	0	0.1
15	0.233333333	0.200446689	0.338944711	0	0.200446689	0.338944711	0.1	0.184733204	0.394020847	0	0.05	0.25	0	0.05	0.25	0.1	-0.05	0.25	0	0.1	0	0	0	0.1	0	0	0	0.1
16	0.25	0.225335017	0.331155768	0	0.225335017	0.331155768	0.1	0.213549903	0.395216678	0	0.05	0.25	0	0.05	0.25	0.1	-0.05	0.25	0	0.1	0	0	0	0.1	0	0	0	0.1
17	0.266666667	0.250223344	0.323366826	0	0.250223344	0.323366826	0.1	0.242366602	0.396412508	0	0.05	0.25	0	0.05	0.25	0.1	-0.05	0.25	0	0.1	0	0	0	0.1	0	0	0	0.1
18	0.283333333	0.275111672	0.315577884	0	0.275111672	0.315577884	0.1	0.271183301	0.397608339	0	0.05	0.25	0	0.05	0.25	0.1	-0.05	0.25	0	0.1	0	0	0	0.1	0	0	0	0.1
19	0.3	0.3	0.3	0	0.3	0.3	0.1	0.3	0.4	0	0.05	0.25	0	0.05	0.25	0.1	-0.05	0.25	0	0.1	0	0	0	0.1	0	0	0	0.1
20	0.316666667	0.308333333	0.3	0	0.308333333	0.3	0.1	0.308333333	0.4	0	0.05	0.25	0	0.05	0.25	0.1	-0.05	0.25	0	0.1	0	0	0	0.1	0	0	0	0.1
21	0.333333333	0.316666667	0.3	0	0.316666667	0.3	0.1	0.316666667	0.4	0	0.05	0.25	0	0.05	0.25	0.1	-0.05	0.25	0	0.1	0	0	0	0.1	0	0	0	0.1
22	0.35	0.325	0.3	0	0.325	0.3	0.1	0.325	0.4	0	0.05	0.25	0	0.05	0.25	0.1	-0.05	0.25	0	0.1	0	0	0	0.1	0	0	0	0.1
23	0.366666667	0.333333333	0.3	0	0.333333333	0.3	0.1	0.333333333	0.4	0	0.05	0.25	0	0.05	0.25	0.1	-0.05	0.25	0	0.1	0	0	0	0.1	0	0	0	0.1
24	0.383333333	0.341666667	0.3	0	0.341666667	0.3	0.1	0.341666667	0.4	0	0.05	0.25	0	0.05	0.25	0.1	-0.05	0.25	0	0.1	0	0	0	0.1	0	0	0	0.1
25	0.4	0.35	0.3	0	0.35	0.3	0.1	0.35	0.4	0	0.05	0.25	0	0.05	0.25	0.1	-0.05	0.25	0	0.1	0	0	0	0.1	0	0	0	0.1
26	0.416666667	0.358333333	0.3	0	0.358333333	0.3	0.1	0.358333333	0.4	0	0.05	0.25	0	0.05	0.25	0.1	-0.05	0.25	0	0.1	0	0	0	0.1	0	0	0	0.1
27	0.433333333	0.366666667	0.3	0	0.366666667	0.3	0.1	0.366666667	0.4	0	0.05	0.25	0	0.05	0.25	0.1	-0.05	0.25	0	0.1	0	0	0	0.1	0	0	0	0.1
28	0.45	0.375	0.3	0	0.375	0.3	0.1	0.375	0.4	0	0.05	0.25	0	0.05	0.25	0.1	-0.05	0.25	0	0.1	0	0	0	0.1	0	0	0	0.1
29	0.466666667	0.383333333	0.3	0	0.383333333	0.3	0.1	0.383333333	0.4	0	0.05	0.25	0	0.05	0.25	0.1	-0.05	0.25	0	0.1	0	0	0	0.1	0	0	0	0.1
30	0.483333333	0.391666667	0.3	0	0.391666667	0.3	0.1	0.391666667	0.4	0	0.05	0.25	0	0.05	0.25	0.1	-0.05	0.25	0	0.1	0	0	0	0.1	0	0	0	0.1
31	0.5	0.4	0.3	0	0.4	0.3	0.1	0.4	0.4	0	0.05	0.25	0	0.05	0.25	0.1	-0.05	0.25	0	0.1	0	0	0	0.1	0	0	0	0.1
32	0.516666667	0.391666667	0.3	0	0.391666667	0.3	0.1	0.391666667	0.4	0	0.05	0.25	0	0.05	0.25	0.1	-0.05	0.25	0	0.1	0	0	0	0.1	0	0	0	0.1
33	0.533333333	0.383333333	0.3	0	0.383333333	0.3	0.1	0.383333333	0.4	0	0.05	0.25	0	0.05	0.25	0.1	-0.05	0.25	0	0.1	0	0	0	0.1	0	0	0	0.1
34	0.55	0.375	0.3	0	0.375	0.3	0.1	0.375	0.4	0	0.05	0.25	0	0.05	0.25	0.1	-0.05	0.25	0	0.1	0	0	0	0.1	0	0	0	0.1
35	0.566666667	0.366666667	0.3	0	0.366666667	0.3	0.1	0.366666667	0.4	0	0.05	0.25	0	0.05	0.25	0.1	-0.05	0.25	0	0.1	0	0	0	0.1	0	0	0	0.1
36	0.583333333	0.358333333	0.3	0	0.358333333	0.3	0.1	0.358333333	0.4	0	0.05	0.25	0	0.05	0.25	0.1	-0.05	0.25	0	0.1	0	0	0	0.1	0	0	0	0.1
37	0.6	0.35	0.3	0	0.35	0.3	0.1	0.35	0.4	0	0.05	0.25	0	0.05	0.25	0.1	-0.05	0.25	0	0.1	0	0	0	0.1	0	0	0	0.1
38	0.616666667	0.341666667	0.3	0	0.341666667	0.3	0.1	0.341666667	0.4	0	0.05	0.25	0	0.05	0.25	0.1	-0.05	0.25	0	0.1	0	0	0	0.1	0	0	0	0.1
39	0.633333333	0.333333333	0.3	0	0.333333333	0.3	0.1	0.333333333	0.4	0	0.05	0.25	0	0.05	0.25	0.1	-0.05	0.25	0	0.1	0	0	0	0.1	0	0	0	0.1
40	0.65	0.325	0.3	0	0.325	0.3	0.1	0.325	0.4	0	0.05	0.25	0	0.05	0.25	0.1	-0.05	0.25	0	0.1	0	0	0	0.1	0	0	0	0.1
41	0.666666667	0.316666667	0.3	0	0.316666667	0.3	0.1	0.316666667	0.4	0	0.05	0.25	0	0.05	0.25	0.1	-0.05	0.25	0	0.1	0	0	0	0.1	0	0	0	0.1
42	0.683333333	0.308333333	0.3	0	0.308333333	0.3	0.1	0.308333333	0.4	0	0.05	0.25	0	0.05	0.25	0.1	-0.05	0.25	0	0.1	0	0	0	0.1	0	0	0	0.1
43	0.7	0.3	0.3	0	0.3	0.3	0.1	0.3	0.4	0	0.05	0.25	0	0.05	0.25	0.1	-0.05	0.25	0	0.1	0	0	0	0.1	0	0	0	0.1
44	0.716666667	0.291666667	0.3	0	0.291666667	0.3	0.1	0.291666667	0.4	0	0.05	0.25	0	0.05	0.25	0.1	-0.05	0.25	0	0.1	0	0	0	0.1	0	0	0	0.1
45	0.733333333	0.283333333	0.3	0	0.283333333	0.3	0.1	0.283333333	0.4	0	0.05	0.25	0	0.05	0.25	0.1	-0.05	0.25	0	0.1	0	0	0	0.1	0	0	0	0.1
46	0.75	0.275	0.3	0	0.275	0.3	0.1	0.275	0.4	0	0.05	0.25	0	0.05	0.25	0.1	-0.05	0.25	0	0.1	0	0	0	0.1	0	0	0	0.1
47	0.766666667	0.266666667	0.3	0	0.266666667	0.3	0.1	0.266666667	0.4	0	0.05	0.25	0	0.05	0.25	0.1	-0.05	0.25	0	0.1	0	0	0	0.1	0	0	0	0.1
48	0.783333333	0.258333333	0.3	0	0.258333333	0.3	0.1	0.258333333	0.4	0	0.05	0.25	0	0.05	0.25	0.1	-0.05	0.25	0	0.1	0	0	0	0.1	0	0	0	0.1
49	0.8	0.25	0.3	0	0.25	0.3	0.1	0.25	0.4	0	0.05	0.25	0	0.05	0.25	0.1	-0.05	0.25	0	0.1	0	0	0	0.1	0	0	0	0.1
50	0.816666667	0.257344097	0.3	0	0.257344097	0.3	0.1	0.258503288	0.4	0	0.05	0.25	0	0.05	0.25	0.1	-0.05	0.25	0	0.1	0	0	0	0.1	0	0	0	0.1
51	0.833333333	0.264688193	0.3	0	0.264688193	0.3	0.1	0.267006576	0.4	0	0.05	0.25	0	0.05	0.25	0.1	-0.05	0.25	0	0.1	0	0	0	0.1	0	0	0	0.1
52	0.85	0.27203229	0.3	0	0.27203229	0.3	0.1	0.275509865	0.4	0	0.05	0.25	0	0.05	0.25	0.1	-0.05	0.25	0	0.1	0	0	0	0.1	0	0	0	0.1
53	0.866666667	0.279376387	0.3	0	0.279376387	0.3	0.1	0.284013153	0.4	0	0.05	0.25	0	0.05	0.25	0.1	-0.05	0.25	0	0.1	0	0	0	0.1	0	0	0	0.1
54	0.883333333	0.286720484	0.3	0	0.286720484	0.3	0.1	0.292516441	0.4	0	0.05	0.25	0	0.05	0.25	0.1	-0.05	0.25	0	0.1	0	0	0	0.1	0	0	0	0.1
55	0.9	0.29406458	0.3	0	0.29406458	0.3	0.1	0.301019729	0.4	0	0.05	0.25	0	0.05	0.25	0.1	-0.05	0.25	0	0.1	0	0	0	0.1	0	0	0	0.1
56	0.916666667	0.301408677	0.3	0	0.301408677	0.3	0.1	0.309523017	0.4	0	0.05	0.25	0	0.05	0.25	0.1	-0.05	0.25	0	0.1	0	0	0	0.1	0	0	0	0.1
57	0.933333333	0.308752774	0.3	0	0.308752774	0.3	0.1	0.318026306	0.4	0	0.05	0.25	0	0.05	0.25	0.1	-0.05	0.25	0	0.1	0	0	0	0.1	0	0	0	0.1
58	0.95	0.31609687	0.3	0	0.31609687	0.3	0.1	0.326529594	0.4	0	0.05	0.25	0	0.05	0.25	0.1	-0.05	0.25	0	0.1	0	0	0	0.1	0	0	0	0.1
59	0.966666667	0.323440967	0.3	0	0.323440967	0.3	0.1	0.335032882	0.4	0	0.05	0.25	0	0.05	0.25	0.1	-0.05	0.25	0	0.1	0	0	0	0.1	0	0	0	0.1
60	0.983333333	0.330785064	0.3	0	0.330785064	0.3	0.1	0.34353617	0.4	0	0.05	0.25	0	0.05	0.25	0.1	-0.05	0.25	0	0.1	0	0	0	0.1	0	0	0	0.1
61	1	0.3	0.3	0	0.3	0.3	0.1	0.3	0.4	0	0.05	0.25	0	0.05	0.25	0.1	-0.05	0.25	0	0.1	0	0	0	0.1	0	0	0	0.1
